<?xml version="1.1" encoding="windows-1252"?>
<svg xmlns="http://www.w3.org/2000/svg"
    xmlns:latexdraw="http://latexdraw.sourceforge.net/namespaces/latexdraw"
    version="1.1" baseProfile="full">
    <g>
        <g latexdraw:type="joinedLines" id="id20151498">
            <polyline points="500.0,380.0 840.0,380.0 "
                stroke-width="2.0" stroke="black"
                stroke-dasharray="8.819444444444445, 5.291666666666667" latexdraw:rotationAngle="0.0"/>
        </g>
        <g latexdraw:type="joinedLines" id="id9081617">
            <polyline points="500.0,380.0 240.0,620.0 "
                stroke-width="2.0" stroke="black"
                stroke-dasharray="8.819444444444445, 5.291666666666667" latexdraw:rotationAngle="0.0"/>
        </g>
        <g latexdraw:type="joinedLines" id="id16277328">
            <polyline points="500.0,380.0 500.0,40.0 "
                stroke-width="2.0" stroke="black"
                stroke-dasharray="8.819444444444445, 5.291666666666667" latexdraw:rotationAngle="0.0"/>
        </g>
        <g latexdraw:type="circle" id="id15799195">
            <circle cx="500.0" cy="380.0" r="279.0"
                latexdraw:borderPos="outer" stroke-width="2.0"
                stroke="black" fill="none"/>
        </g>
        <g latexdraw:type="joinedLines" id="id6549951">
            <polyline points="840.0,380.0 580.0,620.0 "
                stroke-width="2.0" stroke="black"
                stroke-dasharray="8.819444444444445, 5.291666666666667" latexdraw:rotationAngle="0.0"/>
        </g>
        <g latexdraw:type="joinedLines" id="id15744846">
            <polyline points="240.0,620.0 580.0,620.0 "
                stroke-width="2.0" stroke="black" latexdraw:rotationAngle="0.0"/>
        </g>
        <g latexdraw:type="bezierCurve" id="id29750942">
            <path
                d="M 260.0 240.0 C 260.0 280.0 740.0 280.0 740.0 240.0 "
                stroke-width="2.0" stroke="#ff9933" fill="none" latexdraw:rotationAngle="0.0"/>
        </g>
        <g latexdraw:type="bezierCurve" id="id3921517">
            <path
                d="M 260.0 240.0 C 260.0 200.0 740.0 200.0 740.0 240.0 "
                stroke-width="2.0" stroke="#ff9933" fill="none"
                stroke-dasharray="8.819444444444445, 5.291666666666667" latexdraw:rotationAngle="0.0"/>
        </g>
        <g latexdraw:type="joinedLines" id="id4400533">
            <polyline points="240.0,620.0 240.0,180.0 "
                stroke-width="2.0" stroke="black"
                stroke-dasharray="8.819444444444445, 5.291666666666667" latexdraw:rotationAngle="0.0"/>
        </g>
        <g latexdraw:type="joinedLines" id="id27010214">
            <polyline points="240.0,180.0 500.0,40.0 "
                stroke-width="2.0" stroke="black"
                stroke-dasharray="8.819444444444445, 5.291666666666667" latexdraw:rotationAngle="0.0"/>
        </g>
        <g latexdraw:type="bezierCurve" id="id1468600">
            <path
                d="M 780.0 380.0 C 780.0 420.0 220.0 420.0 220.0 380.0 "
                stroke-width="2.0" stroke="black" fill="none" latexdraw:rotationAngle="0.0"/>
        </g>
        <g latexdraw:type="dot" id="id10958686" latexdraw:size="7.0"
            latexdraw:dotShape="*" latexdraw:position="500.0 380.0">
            <path
                d="M 503.2307692307692 380.0 C 503.2307692307692 381.7843045763764 501.7843045763764 383.2307692307692 500.0 383.2307692307692 C 498.2156954236236 383.2307692307692 496.7692307692308 381.7843045763764 496.7692307692308 380.0 C 496.7692307692308 378.2156954236236 498.2156954236236 376.7692307692308 500.0 376.7692307692308 C 501.7843045763764 376.7692307692308 503.2307692307692 378.2156954236236 503.2307692307692 380.0 z "
                fill="black" stroke-linecap="square"
                stroke-linejoin="butt" stroke-width="0.4375"
                stroke-miterlimit="10.0" stroke-dashoffset="0.0" stroke="black"/>
        </g>
        <g latexdraw:type="text" id="id29467666" fill="#ff9966" latexdraw:position="bl">
            <text x="600.0" y="300.0">$P(t)= |\partial K_t|$</text>
        </g>
        <g latexdraw:type="joinedLines" id="id24885534">
            <polyline
                points="440.0,240.0 600.0,60.0 598.0,99.0 640.0,60.0 "
                stroke-width="2.0" stroke="black" fill="none"
                latexdraw:rotationAngle="0.0" marker-start="url(#arrow0-24885534)"/>
        </g>
        <g latexdraw:type="text" id="id28091278" fill="black" latexdraw:position="bl">
            <text x="640.0" y="60.0">$A(t)=|K \cap \{x_n=t\}|$</text>
        </g>
        <g latexdraw:type="joinedLines" id="id26040748">
            <polyline
                points="497.4827340501323,238.13429054159238 588.8029802355819,267.2942808869792 "
                stroke-width="2.0" stroke="#ff9933"
                latexdraw:rotationAngle="0.0" marker-end="url(#arrow1-26040748)"/>
        </g>
        <g latexdraw:type="text" id="id303397" fill="black" latexdraw:position="bl">
            <text x="860.0" y="380.0">$y$</text>
        </g>
        <g latexdraw:type="text" id="id2321871" fill="black" latexdraw:position="bl">
            <text x="220.0" y="640.0">$x$</text>
        </g>
        <g latexdraw:type="text" id="id19199514" fill="black" latexdraw:position="bl">
            <text x="480.0" y="40.0">$z$</text>
        </g>
        <g latexdraw:type="dot" id="id6004953" latexdraw:size="7.0"
            latexdraw:dotShape="*" latexdraw:position="500.0 240.0">
            <path
                d="M 503.2307692307692 240.0 C 503.2307692307692 241.78430457637643 501.7843045763764 243.23076923076923 500.0 243.23076923076923 C 498.2156954236236 243.23076923076923 496.7692307692308 241.78430457637643 496.7692307692308 240.0 C 496.7692307692308 238.2156954236236 498.2156954236236 236.76923076923077 500.0 236.76923076923077 C 501.7843045763764 236.76923076923077 503.2307692307692 238.2156954236236 503.2307692307692 240.0 z "
                fill="black" stroke-linecap="square"
                stroke-linejoin="butt" stroke-width="0.4375"
                stroke-miterlimit="10.0" stroke-dashoffset="0.0" stroke="black"/>
        </g>
        <g latexdraw:type="text" id="id2704862" fill="black" latexdraw:position="bl">
            <text x="480.0" y="240.0">$t$</text>
        </g>
        <g latexdraw:type="drawing" id="id9175546">
            <g latexdraw:type="polygon" id="id8202628">
                <polygon
                    points="320.0,520.0 340.0,500.0 420.0,500.0 400.0,520.0 "
                    stroke-width="2.0" stroke="black"
                    fill="url(#pattern8202628)" latexdraw:rotationAngle="0.0"/>
            </g>
            <g latexdraw:type="dot" id="id22535580" latexdraw:size="7.0"
                latexdraw:dotShape="*" latexdraw:position="320.0 520.0">
                <path
                    d="M 323.2307692307692 520.0 C 323.2307692307692 521.7843045763764 321.7843045763764 523.2307692307692 320.0 523.2307692307692 C 318.2156954236236 523.2307692307692 316.7692307692308 521.7843045763764 316.7692307692308 520.0 C 316.7692307692308 518.2156954236235 318.2156954236236 516.7692307692307 320.0 516.7692307692307 C 321.7843045763764 516.7692307692307 323.2307692307692 518.2156954236235 323.2307692307692 520.0 z "
                    fill="#ff3300" stroke-linecap="square"
                    stroke-linejoin="butt" stroke-width="0.4375"
                    stroke-miterlimit="10.0" stroke-dashoffset="0.0" stroke="#ff3300"/>
            </g>
            <g latexdraw:type="dot" id="id15726971" latexdraw:size="7.0"
                latexdraw:dotShape="*" latexdraw:position="340.0 500.0">
                <path
                    d="M 343.2307692307692 500.0 C 343.2307692307692 501.7843045763764 341.7843045763764 503.2307692307692 340.0 503.2307692307692 C 338.2156954236236 503.2307692307692 336.7692307692308 501.7843045763764 336.7692307692308 500.0 C 336.7692307692308 498.2156954236236 338.2156954236236 496.7692307692308 340.0 496.7692307692308 C 341.7843045763764 496.7692307692308 343.2307692307692 498.2156954236236 343.2307692307692 500.0 z "
                    fill="#6699ff" stroke-linecap="square"
                    stroke-linejoin="butt" stroke-width="0.4375"
                    stroke-miterlimit="10.0" stroke-dashoffset="0.0" stroke="#6699ff"/>
            </g>
            <g latexdraw:type="dot" id="id3054956" latexdraw:size="7.0"
                latexdraw:dotShape="*" latexdraw:position="420.0 500.0">
                <path
                    d="M 423.2307692307692 500.0 C 423.2307692307692 501.7843045763764 421.7843045763764 503.2307692307692 420.0 503.2307692307692 C 418.2156954236236 503.2307692307692 416.7692307692308 501.7843045763764 416.7692307692308 500.0 C 416.7692307692308 498.2156954236236 418.2156954236236 496.7692307692308 420.0 496.7692307692308 C 421.7843045763764 496.7692307692308 423.2307692307692 498.2156954236236 423.2307692307692 500.0 z "
                    fill="magenta" stroke-linecap="square"
                    stroke-linejoin="butt" stroke-width="0.4375"
                    stroke-miterlimit="10.0" stroke-dashoffset="0.0" stroke="magenta"/>
            </g>
            <g latexdraw:type="dot" id="id26986083" latexdraw:size="7.0"
                latexdraw:dotShape="*" latexdraw:position="400.0 520.0">
                <path
                    d="M 403.2307692307692 520.0 C 403.2307692307692 521.7843045763764 401.7843045763764 523.2307692307692 400.0 523.2307692307692 C 398.2156954236236 523.2307692307692 396.7692307692308 521.7843045763764 396.7692307692308 520.0 C 396.7692307692308 518.2156954236235 398.2156954236236 516.7692307692307 400.0 516.7692307692307 C 401.7843045763764 516.7692307692307 403.2307692307692 518.2156954236235 403.2307692307692 520.0 z "
                    fill="#009900" stroke-linecap="square"
                    stroke-linejoin="butt" stroke-width="0.4375"
                    stroke-miterlimit="10.0" stroke-dashoffset="0.0" stroke="#009900"/>
            </g>
        </g>
        <g latexdraw:type="joinedLines" id="id29072554">
            <polyline points="500.0,40.0 840.0,40.0 " stroke-width="2.0"
                stroke="black"
                stroke-dasharray="8.819444444444445, 5.291666666666667" latexdraw:rotationAngle="0.0"/>
        </g>
        <g latexdraw:type="joinedLines" id="id20151700">
            <polyline points="840.0,380.0 840.0,40.0 "
                stroke-width="2.0" stroke="black"
                stroke-dasharray="8.819444444444445, 5.291666666666667" latexdraw:rotationAngle="0.0"/>
        </g>
        <g latexdraw:type="joinedLines" id="id20762811">
            <polyline points="500.0,380.0 180.0,380.0 "
                stroke-width="2.0" stroke="black"
                stroke-dasharray="8.819444444444445, 5.291666666666667" latexdraw:rotationAngle="0.0"/>
        </g>
        <g latexdraw:type="joinedLines" id="id29301724">
            <polyline points="240.0,620.0 180.0,620.0 "
                stroke-width="2.0" stroke="black"
                stroke-dasharray="8.819444444444445, 5.291666666666667" latexdraw:rotationAngle="0.0"/>
        </g>
        <g latexdraw:type="joinedLines" id="id13945858">
            <polyline
                points="420.0,249.2857142857143 420.0,287.8571428571429 "
                stroke-width="2.0" stroke="black" latexdraw:rotationAngle="0.0"/>
        </g>
        <g latexdraw:type="joinedLines" id="id7524418">
            <polyline
                points="300.0,237.85714285714286 299.2857142857143,277.8571428571429 "
                stroke-width="2.0" stroke="black" latexdraw:rotationAngle="0.0"/>
        </g>
        <g latexdraw:type="bezierCurve" id="id15478740">
            <path
                d="M 300.7142857142857 237.85714285714286 C 302.2422827825585 237.56267049153004 302.37350562656405 240.2029540707187 351.42857142857144 245.00000000000003 C 400.48363723057884 249.79704592928135 420.2256109695772 249.83056894943732 419.28571428571433 249.2857142857143 "
                stroke-width="2.0" stroke="black" fill="none" latexdraw:rotationAngle="0.0"/>
        </g>
        <g latexdraw:type="bezierCurve" id="id24849725">
            <path
                d="M 299.9999999999995 277.1428571428571 C 301.52799706827227 276.8483847772443 301.6592199122778 279.4886683564329 350.7142857142852 284.2857142857142 C 399.7693515162926 289.0827602149955 419.51132525529096 289.1162832351515 418.5714285714281 288.57142857142856 "
                stroke-width="2.0" stroke="black" fill="none" latexdraw:rotationAngle="0.0"/>
        </g>
        <g latexdraw:type="dot" id="id2244445" latexdraw:size="7.0"
            latexdraw:dotShape="*" latexdraw:position="298.2857142857147 277.99999999999955">
            <path
                d="M 301.5164835164839 277.99999999999955 C 301.5164835164839 279.784304576376 300.0700188620911 281.2307692307688 298.2857142857147 281.2307692307688 C 296.50140970933825 281.2307692307688 295.05494505494545 279.784304576376 295.05494505494545 277.99999999999955 C 295.05494505494545 276.2156954236231 296.50140970933825 274.7692307692303 298.2857142857147 274.7692307692303 C 300.0700188620911 274.7692307692303 301.5164835164839 276.2156954236231 301.5164835164839 277.99999999999955 z "
                fill="#ff3300" stroke-linecap="square"
                stroke-linejoin="butt" stroke-width="0.4375"
                stroke-miterlimit="10.0" stroke-dashoffset="0.0" stroke="#ff3300"/>
        </g>
        <g latexdraw:type="dot" id="id23611350" latexdraw:size="7.0"
            latexdraw:dotShape="*" latexdraw:position="419.2857142857142 289.2857142857147">
            <path
                d="M 422.51648351648345 289.2857142857147 C 422.51648351648345 291.0700188620911 421.07001886209065 292.5164835164839 419.2857142857142 292.5164835164839 C 417.5014097093378 292.5164835164839 416.054945054945 291.0700188620911 416.054945054945 289.2857142857147 C 416.054945054945 287.50140970933825 417.5014097093378 286.05494505494545 419.2857142857142 286.05494505494545 C 421.07001886209065 286.05494505494545 422.51648351648345 287.50140970933825 422.51648351648345 289.2857142857147 z "
                fill="#009966" stroke-linecap="square"
                stroke-linejoin="butt" stroke-width="0.4375"
                stroke-miterlimit="10.0" stroke-dashoffset="0.0" stroke="#009966"/>
        </g>
        <g latexdraw:type="dot" id="id12551605" latexdraw:size="7.0"
            latexdraw:dotShape="*" latexdraw:position="420.7142857142853 250.0">
            <path
                d="M 423.94505494505455 250.0 C 423.94505494505455 251.78430457637643 422.49859029066175 253.23076923076923 420.7142857142853 253.23076923076923 C 418.9299811379089 253.23076923076923 417.4835164835161 251.78430457637643 417.4835164835161 250.0 C 417.4835164835161 248.2156954236236 418.9299811379089 246.76923076923077 420.7142857142853 246.76923076923077 C 422.49859029066175 246.76923076923077 423.94505494505455 248.2156954236236 423.94505494505455 250.0 z "
                fill="magenta" stroke-linecap="square"
                stroke-linejoin="butt" stroke-width="0.4375"
                stroke-miterlimit="10.0" stroke-dashoffset="0.0" stroke="magenta"/>
        </g>
        <g latexdraw:type="dot" id="id8065639" latexdraw:size="7.0"
            latexdraw:dotShape="*" latexdraw:position="300.428571428572 238.57142857142844">
            <path
                d="M 303.65934065934124 238.57142857142844 C 303.65934065934124 240.35573314780487 302.21287600494844 241.80219780219767 300.428571428572 241.80219780219767 C 298.6442668521956 241.80219780219767 297.1978021978028 240.35573314780487 297.1978021978028 238.57142857142844 C 297.1978021978028 236.78712399505204 298.6442668521956 235.34065934065922 300.428571428572 235.34065934065922 C 302.21287600494844 235.34065934065922 303.65934065934124 236.78712399505204 303.65934065934124 238.57142857142844 z "
                fill="#6699ff" stroke-linecap="square"
                stroke-linejoin="butt" stroke-width="0.4375"
                stroke-miterlimit="10.0" stroke-dashoffset="0.0" stroke="#6699ff"/>
        </g>
        <g latexdraw:type="polygon" id="id23245816">
            <polygon
                points="540.0,180.0 560.0,160.0 640.0,160.0 620.0,180.0 "
                stroke-width="2.0" stroke="black"
                fill="url(#pattern23245816)" latexdraw:rotationAngle="0.0"/>
        </g>
        <g latexdraw:type="dot" id="id24633137" latexdraw:size="7.0"
            latexdraw:dotShape="*" latexdraw:position="540.4285714285716 180.14285714285666">
            <path
                d="M 543.6593406593407 180.14285714285666 C 543.6593406593407 181.92716171923308 542.2128760049479 183.37362637362588 540.4285714285716 183.37362637362588 C 538.6442668521951 183.37362637362588 537.1978021978023 181.92716171923308 537.1978021978023 180.14285714285666 C 537.1978021978023 178.35855256648026 538.6442668521951 176.91208791208743 540.4285714285716 176.91208791208743 C 542.2128760049479 176.91208791208743 543.6593406593407 178.35855256648026 543.6593406593407 180.14285714285666 z "
                fill="#ff3300" stroke-linecap="square"
                stroke-linejoin="butt" stroke-width="0.4375"
                stroke-miterlimit="10.0" stroke-dashoffset="0.0" stroke="#ff3300"/>
        </g>
        <g latexdraw:type="dot" id="id11735389"
            latexdraw:size="6.999999999999998" latexdraw:dotShape="*" latexdraw:position="559.7142857142862 159.285714285714">
            <path
                d="M 562.9450549450554 159.285714285714 C 562.9450549450554 161.0700188620904 561.4985902906626 162.51648351648322 559.7142857142862 162.51648351648322 C 557.9299811379097 162.51648351648322 556.483516483517 161.0700188620904 556.483516483517 159.285714285714 C 556.483516483517 157.5014097093376 557.9299811379097 156.05494505494477 559.7142857142862 156.05494505494477 C 561.4985902906626 156.05494505494477 562.9450549450554 157.5014097093376 562.9450549450554 159.285714285714 z "
                fill="#6699ff" stroke-linecap="square"
                stroke-linejoin="butt" stroke-width="0.4375"
                stroke-miterlimit="10.0" stroke-dashoffset="0.0" stroke="#6699ff"/>
        </g>
        <g latexdraw:type="dot" id="id15862687" latexdraw:size="7.0"
            latexdraw:dotShape="*" latexdraw:position="640.1382488479258 160.71428571428578">
            <path
                d="M 643.3690180786949 160.71428571428578 C 643.3690180786949 162.4985902906622 641.9225534243021 163.945054945055 640.1382488479258 163.945054945055 C 638.3539442715493 163.945054945055 636.9074796171565 162.4985902906622 636.9074796171565 160.71428571428578 C 636.9074796171565 158.92998113790938 638.3539442715493 157.48351648351655 640.1382488479258 157.48351648351655 C 641.9225534243021 157.48351648351655 643.3690180786949 158.92998113790938 643.3690180786949 160.71428571428578 z "
                fill="magenta" stroke-linecap="square"
                stroke-linejoin="butt" stroke-width="0.4375"
                stroke-miterlimit="10.0" stroke-dashoffset="0.0" stroke="magenta"/>
        </g>
        <g latexdraw:type="dot" id="id1297987"
            latexdraw:size="6.999999999999994" latexdraw:dotShape="*" latexdraw:position="622.1428571428569 180.00000000000045">
            <path
                d="M 625.373626373626 180.00000000000045 C 625.373626373626 181.78430457637685 623.9271617192333 183.23076923076968 622.1428571428569 183.23076923076968 C 620.3585525664804 183.23076923076968 618.9120879120876 181.78430457637685 618.9120879120876 180.00000000000045 C 618.9120879120876 178.21569542362406 620.3585525664804 176.76923076923123 622.1428571428569 176.76923076923123 C 623.9271617192333 176.76923076923123 625.373626373626 178.21569542362406 625.373626373626 180.00000000000045 z "
                fill="#009966" stroke-linecap="square"
                stroke-linejoin="butt" stroke-width="0.4375"
                stroke-miterlimit="10.0" stroke-dashoffset="0.0" stroke="#009966"/>
        </g>
        <g latexdraw:type="text" id="id19429349" fill="black" latexdraw:position="bl">
            <text x="357.0" y="275.0">$\|$</text>
        </g>
        <g latexdraw:type="text" id="id9761129" fill="black" latexdraw:position="bl">
            <text x="641.0" y="388.0">$\|$</text>
        </g>
    </g>
    <defs>
        <marker overflow="visible" orient="auto" id="arrow0-24885534">
            <path
                d="M 0.0 0.0 L 4.652083333333334 1.6614583333333335 L 4.652083333333334 0.0 L 4.652083333333334 -1.6614583333333335 z "
                latexdraw:arrSizeNum="2.0" fill="black"/>
        </marker>
        <marker overflow="visible" orient="auto" id="arrow1-26040748">
            <path
                d="M 0.0 0.0 L -4.652083333333334 1.6614583333333335 L -4.652083333333334 0.0 L -4.652083333333334 -1.6614583333333335 z "
                latexdraw:arrSizeNum="2.0" fill="#ff9933"/>
        </marker>
        <pattern latexdraw:type="hlines" latexdraw:rotationAngle="0.0"
            latexdraw:size="7.055555555555555"
            patternUnits="userSpaceOnUse" id="pattern8202628" x="0"
            y="0" width="420" height="520">
            <g stroke="black" stroke-width="1.4111111111111112" stroke-dasharray="none">
                <path d="M 320.0 500.0 L 420.0 500.0 M 320.0 508.46666666666664 L 420.0 508.46666666666664 M 320.0 516.9333333333333 L 420.0 516.9333333333333 "/>
            </g>
        </pattern>
        <pattern latexdraw:type="vlines" latexdraw:rotationAngle="0.0"
            latexdraw:size="7.055555555555555"
            patternUnits="userSpaceOnUse" id="pattern23245816" x="0"
            y="0" width="640" height="180">
            <g stroke="black" stroke-width="1.4111111111111112" stroke-dasharray="none">
                <path d="M 540.0 160.0 L 540.0 180.0 M 548.4666666666667 160.0 L 548.4666666666667 180.0 M 556.9333333333334 160.0 L 556.9333333333334 180.0 M 565.4000000000001 160.0 L 565.4000000000001 180.0 M 573.8666666666668 160.0 L 573.8666666666668 180.0 M 582.3333333333335 160.0 L 582.3333333333335 180.0 M 590.8000000000002 160.0 L 590.8000000000002 180.0 M 599.2666666666669 160.0 L 599.2666666666669 180.0 M 607.7333333333336 160.0 L 607.7333333333336 180.0 M 616.2000000000003 160.0 L 616.2000000000003 180.0 M 624.666666666667 160.0 L 624.666666666667 180.0 M 633.1333333333337 160.0 L 633.1333333333337 180.0 "/>
            </g>
        </pattern>
    </defs>
    <metadata>
        <latexdraw:metadata>
            <latexdraw:latexIncludes>\usepackage{amssymb}</latexdraw:latexIncludes>
            <latexdraw:displayXScale>true</latexdraw:displayXScale>
            <latexdraw:displayYScale>true</latexdraw:displayYScale>
            <latexdraw:unit>CM</latexdraw:unit>
            <latexdraw:zoom>1.0</latexdraw:zoom>
            <latexdraw:magneticGridStyle>CUSTOMISED</latexdraw:magneticGridStyle>
            <latexdraw:gridGap>20</latexdraw:gridGap>
            <latexdraw:magneticGrid>true</latexdraw:magneticGrid>
            <latexdraw:version>3.3.8</latexdraw:version>
            <latexdraw:size>
                <latexdraw:width>1034</latexdraw:width>
                <latexdraw:height>833</latexdraw:height>
            </latexdraw:size>
            <latexdraw:position>
                <latexdraw:x>772.0</latexdraw:x>
                <latexdraw:y>103.0</latexdraw:y>
            </latexdraw:position>
        </latexdraw:metadata>
    </metadata>
</svg>
