<?xml version="1.1" encoding="windows-1252"?>
<svg xmlns="http://www.w3.org/2000/svg"
    xmlns:latexdraw="http://latexdraw.sourceforge.net/namespaces/latexdraw"
    version="1.1" baseProfile="full">
    <g>
        <g latexdraw:type="bezierCurve" id="id6441163">
            <path
                d="M 420.0 220.0 C 420.0 220.0 389.6941867336812 154.47842369625764 340.0 160.0 C 290.30581326631886 165.52157630374236 270.00000000000006 199.99999999999994 240.0 240.0 C 209.99999999999997 280.0 145.6326057216826 352.108685738942 160.0 400.0 C 174.3673942783174 447.891314261058 254.04274849909743 459.69596492895846 300.0 440.0 C 345.9572515009025 420.30403507104154 259.3133264396633 369.06190968595513 300.0 340.0 C 340.68667356033677 310.93809031404487 394.48167612686916 360.69014721505926 440.0 340.0 C 485.5183238731309 319.3098527849407 520.0 290.0 520.0 240.0 C 520.0 190.0 440.0 260.0 420.0 220.0 "
                stroke-width="2.0" stroke="black" fill="none" latexdraw:rotationAngle="0.0"/>
        </g>
        <g latexdraw:type="bezierCurve" id="id32891711">
            <path
                d="M 780.0 220.0 C 780.0 220.0 880.0 260.0 860.0 320.0 C 840.0 380.0 700.0 370.0 700.0 320.0 C 700.0 270.0 875.2786404500042 157.6393202250021 920.0 180.0 C 964.7213595499958 202.3606797749979 960.0 420.0 900.0 440.0 C 840.0 460.0 740.0 460.0 680.0 440.0 C 620.0 420.0 600.0 240.0 640.0 200.0 C 680.0 160.0 780.0 220.0 780.0 220.0 "
                stroke-width="2.0" stroke="black" fill="none" latexdraw:rotationAngle="0.0"/>
        </g>
        <g latexdraw:type="dot" id="id2270576" latexdraw:size="20.0"
            latexdraw:dotShape="asterisk" latexdraw:position="790.666666666667 226.00000000000009">
            <path
                d="M 790.666666666667 216.75000000000009 L 790.666666666667 235.25000000000009 M 798.677401651673 230.62500000000009 L 782.655931681661 221.37500000000009 M 782.655931681661 230.62500000000009 L 798.677401651673 221.37500000000009 "
                stroke-linecap="square" stroke-linejoin="butt"
                stroke-width="1.25" stroke-miterlimit="10.0"
                stroke-dashoffset="0.0" stroke="#ff3333"/>
        </g>
    </g>
    <defs/>
    <metadata>
        <latexdraw:metadata>
            <latexdraw:latexIncludes>\usepackage{amssymb}&#xd;
</latexdraw:latexIncludes>
            <latexdraw:displayXScale>true</latexdraw:displayXScale>
            <latexdraw:displayYScale>true</latexdraw:displayYScale>
            <latexdraw:unit>CM</latexdraw:unit>
            <latexdraw:zoom>1.5</latexdraw:zoom>
            <latexdraw:magneticGridStyle>CUSTOMISED</latexdraw:magneticGridStyle>
            <latexdraw:gridGap>20</latexdraw:gridGap>
            <latexdraw:magneticGrid>false</latexdraw:magneticGrid>
            <latexdraw:version>3.3.8</latexdraw:version>
            <latexdraw:size>
                <latexdraw:width>1034</latexdraw:width>
                <latexdraw:height>833</latexdraw:height>
            </latexdraw:size>
            <latexdraw:position>
                <latexdraw:x>772.0</latexdraw:x>
                <latexdraw:y>103.0</latexdraw:y>
            </latexdraw:position>
        </latexdraw:metadata>
    </metadata>
</svg>
